<?xml version="1.0" encoding="UTF-8" standalone="no"?>
<svg
   height="24"
   viewBox="0 -960 960 960"
   width="24"
   version="1.1"
   id="svg1"
   sodipodi:docname="edit-red.svg"
   inkscape:version="1.3 (0e150ed6c4, 2023-07-21)"
   xmlns:inkscape="http://www.inkscape.org/namespaces/inkscape"
   xmlns:sodipodi="http://sodipodi.sourceforge.net/DTD/sodipodi-0.dtd"
   xmlns="http://www.w3.org/2000/svg"
   xmlns:svg="http://www.w3.org/2000/svg">
  <defs
     id="defs1" />
  <sodipodi:namedview
     id="namedview1"
     pagecolor="#ffffff"
     bordercolor="#999999"
     borderopacity="1"
     inkscape:showpageshadow="2"
     inkscape:pageopacity="0"
     inkscape:pagecheckerboard="0"
     inkscape:deskcolor="#d1d1d1"
     inkscape:zoom="9.8333333"
     inkscape:cx="12"
     inkscape:cy="12"
     inkscape:window-width="1080"
     inkscape:window-height="1898"
     inkscape:window-x="1913"
     inkscape:window-y="-7"
     inkscape:window-maximized="1"
     inkscape:current-layer="svg1" />
  <path
     d="M204-318q-22-38-33-78t-11-82q0-134 93-228t227-94h7l-64-64 56-56 160 160-160 160-56-56 64-64h-7q-100 0-170 70.5T240-478q0 26 6 51t18 49l-60 60ZM481-40 321-200l160-160 56 56-64 64h7q100 0 170-70.5T720-482q0-26-6-51t-18-49l60-60q22 38 33 78t11 82q0 134-93 228t-227 94h-7l64 64-56 56Z"
     id="path1"
     style="fill:#ff0000" />
</svg>
